<?xml version="1.0" encoding="UTF-8" standalone="no"?>
<svg
   xmlns:dc="http://purl.org/dc/elements/1.1/"
   xmlns:cc="http://creativecommons.org/ns#"
   xmlns:rdf="http://www.w3.org/1999/02/22-rdf-syntax-ns#"
   xmlns:svg="http://www.w3.org/2000/svg"
   xmlns="http://www.w3.org/2000/svg"
   xmlns:sodipodi="http://sodipodi.sourceforge.net/DTD/sodipodi-0.dtd"
   xmlns:inkscape="http://www.inkscape.org/namespaces/inkscape"
   inkscape:version="1.0beta2 (25cba93, 2020-02-08)"
   sodipodi:docname="LOGO_EKIPAR_Texto_inv.svg"
   viewBox="0 0 650 100"
   height="100"
   width="650"
   xml:space="preserve"
   id="svg2"
   version="1.1"><metadata
     id="metadata8"><rdf:RDF><cc:Work
         rdf:about=""><dc:format>image/svg+xml</dc:format><dc:type
           rdf:resource="http://purl.org/dc/dcmitype/StillImage" /><dc:title></dc:title></cc:Work></rdf:RDF></metadata><defs
     id="defs6"><clipPath
       id="clipPath94"
       clipPathUnits="userSpaceOnUse"><path
         inkscape:connector-curvature="0"
         id="path92"
         d="M 0,164.541 H 675.961 V 0 H 0 Z" /></clipPath><clipPath
       id="clipPath194"
       clipPathUnits="userSpaceOnUse"><path
         inkscape:connector-curvature="0"
         id="path192"
         d="m 481.209,109.952 c -2.136,0 -4.224,-0.416 -6.202,-1.237 v 0 c -1.975,-0.818 -3.745,-2.003 -5.258,-3.518 v 0 L 455.602,91.021 c -1.512,-1.516 -2.693,-3.289 -3.511,-5.268 v 0 c -0.819,-1.98 -1.235,-4.069 -1.235,-6.212 v 0 -20.907 c 0,-2.999 1.166,-5.818 3.283,-7.938 v 0 c 2.115,-2.119 4.929,-3.288 7.922,-3.288 v 0 h 1.2 v 20.048 h 57.62 V 47.408 h 1.204 c 2.994,0 5.806,1.169 7.921,3.288 v 0 c 2.117,2.12 3.28,4.939 3.28,7.938 v 0 40.093 c 0,2.998 -1.163,5.817 -3.28,7.937 v 0 c -2.115,2.121 -4.927,3.288 -7.921,3.288 v 0 z m -17.948,-28.833 16.374,16.408 h 41.246 V 79.881 h -57.62 z" /></clipPath><linearGradient
       id="linearGradient212"
       spreadMethod="pad"
       gradientTransform="matrix(0,-58.776108,-58.776108,0,492.0708,107.82764)"
       gradientUnits="userSpaceOnUse"
       y2="0"
       x2="1"
       y1="0"
       x1="0"><stop
         id="stop200"
         offset="0"
         style="stop-opacity:1;stop-color:#696262" /><stop
         id="stop202"
         offset="0.357574"
         style="stop-opacity:1;stop-color:#3f3e3d" /><stop
         id="stop204"
         offset="0.4067981"
         style="stop-opacity:1;stop-color:#3f3e3d" /><stop
         id="stop206"
         offset="0.442429"
         style="stop-opacity:1;stop-color:#000000" /><stop
         id="stop208"
         offset="0.68593919"
         style="stop-opacity:1;stop-color:#000000" /><stop
         id="stop210"
         offset="1"
         style="stop-opacity:1;stop-color:#696262" /></linearGradient><clipPath
       id="clipPath222"
       clipPathUnits="userSpaceOnUse"><path
         inkscape:connector-curvature="0"
         id="path220"
         d="m 480.675,109.94 c -2.048,0 -4.046,-0.397 -5.936,-1.18 v 0 c -1.895,-0.784 -3.586,-1.916 -5.033,-3.365 v 0 L 455.557,91.25 c -1.447,-1.45 -2.578,-3.145 -3.363,-5.035 v 0 c -0.784,-1.89 -1.184,-3.888 -1.184,-5.938 v 0 -20.864 c 0,-2.81 1.096,-5.449 3.08,-7.436 v 0 c 1.987,-1.986 4.629,-3.077 7.438,-3.077 v 0 h 0.51 v 20.006 h 59 V 48.9 h 0.511 c 2.809,0 5.448,1.091 7.434,3.077 v 0 c 1.986,1.987 3.08,4.626 3.08,7.436 v 0 40.014 c 0,2.808 -1.094,5.448 -3.08,7.434 v 0 c -1.986,1.987 -4.625,3.079 -7.434,3.079 v 0 z m -18.637,-27.802 16.777,16.779 h 42.223 V 79.93 h -59 z" /></clipPath><linearGradient
       id="linearGradient242"
       spreadMethod="pad"
       gradientTransform="matrix(0,-48.120834,-48.120834,0,491.53662,104.2417)"
       gradientUnits="userSpaceOnUse"
       y2="0"
       x2="1"
       y1="0"
       x1="0"><stop
         id="stop228"
         offset="0"
         style="stop-opacity:1;stop-color:#877f7e" /><stop
         id="stop230"
         offset="0.19418704"
         style="stop-opacity:1;stop-color:#52504f" /><stop
         id="stop232"
         offset="0.40361"
         style="stop-opacity:1;stop-color:#52504f" /><stop
         id="stop234"
         offset="0.5310614"
         style="stop-opacity:1;stop-color:#000000" /><stop
         id="stop236"
         offset="0.539398"
         style="stop-opacity:1;stop-color:#000000" /><stop
         id="stop238"
         offset="0.60940775"
         style="stop-opacity:1;stop-color:#000000" /><stop
         id="stop240"
         offset="1"
         style="stop-opacity:1;stop-color:#696262" /></linearGradient><clipPath
       id="clipPath252"
       clipPathUnits="userSpaceOnUse"><path
         inkscape:connector-curvature="0"
         id="path250"
         d="m 480.56,108.842 c -1.921,0 -3.796,-0.372 -5.57,-1.108 v 0 c -1.775,-0.735 -3.365,-1.797 -4.724,-3.156 v 0 L 456.12,90.432 c -1.358,-1.36 -2.42,-2.948 -3.155,-4.722 v 0 c -0.736,-1.776 -1.107,-3.651 -1.107,-5.57 v 0 -20.867 c 0,-2.55 0.994,-4.951 2.797,-6.755 v 0 c 1.697,-1.699 3.922,-2.677 6.304,-2.788 v 0 19.547 c 0,0.25 0.204,0.451 0.451,0.451 v 0 h 60.024 c 0.246,0 0.451,-0.201 0.451,-0.451 v 0 -19.547 c 2.381,0.111 4.608,1.089 6.305,2.788 v 0 c 1.803,1.804 2.797,4.205 2.797,6.755 v 0 40.015 c 0,2.552 -0.994,4.951 -2.797,6.756 v 0 c -1.807,1.804 -4.206,2.798 -6.756,2.798 v 0 z M 460.959,79.281 v 2.929 c 0,0.12 0.049,0.235 0.133,0.319 v 0 l 17.078,17.078 c 0.085,0.083 0.2,0.131 0.319,0.131 v 0 h 42.945 c 0.246,0 0.451,-0.202 0.451,-0.45 v 0 -20.007 c 0,-0.247 -0.205,-0.451 -0.451,-0.451 v 0 H 461.41 c -0.247,0 -0.451,0.204 -0.451,0.451" /></clipPath><linearGradient
       id="linearGradient264"
       spreadMethod="pad"
       gradientTransform="matrix(0.7825165,-38.9982,-38.9982,-0.7825165,490.98096,101.32324)"
       gradientUnits="userSpaceOnUse"
       y2="0"
       x2="1"
       y1="0"
       x1="0"><stop
         id="stop258"
         offset="0"
         style="stop-opacity:1;stop-color:#e0dee0" /><stop
         id="stop260"
         offset="0.68853926"
         style="stop-opacity:1;stop-color:#696262" /><stop
         id="stop262"
         offset="1"
         style="stop-opacity:1;stop-color:#696262" /></linearGradient><clipPath
       id="clipPath274"
       clipPathUnits="userSpaceOnUse"><path
         inkscape:connector-curvature="0"
         id="path272"
         d="m 480.962,108.375 c -1.878,0 -3.707,-0.364 -5.44,-1.082 v 0 c -1.73,-0.717 -3.281,-1.754 -4.608,-3.079 v 0 L 456.768,90.068 c -1.328,-1.328 -2.362,-2.879 -3.08,-4.609 v 0 c -0.717,-1.732 -1.083,-3.562 -1.083,-5.436 v 0 -20.866 c 0,-2.459 0.96,-4.769 2.698,-6.509 v 0 c 1.549,-1.546 3.551,-2.477 5.705,-2.661 v 0 19.174 c 0,0.441 0.362,0.798 0.803,0.798 v 0 h 60.022 c 0.443,0 0.798,-0.357 0.798,-0.798 v 0 -19.174 c 2.158,0.184 4.161,1.115 5.709,2.661 v 0 c 1.738,1.74 2.696,4.05 2.696,6.509 v 0 40.014 c 0,2.458 -0.958,4.769 -2.696,6.509 v 0 c -1.738,1.737 -4.049,2.695 -6.507,2.695 v 0 z M 461.008,79.164 v 2.93 c 0,0.212 0.086,0.416 0.235,0.566 v 0 l 17.078,17.076 c 0.152,0.151 0.353,0.236 0.568,0.236 v 0 h 42.944 c 0.443,0 0.798,-0.36 0.798,-0.801 v 0 -20.007 c 0,-0.441 -0.355,-0.801 -0.798,-0.801 v 0 h -60.022 c -0.441,0 -0.803,0.36 -0.803,0.801" /></clipPath><linearGradient
       id="linearGradient294"
       spreadMethod="pad"
       gradientTransform="matrix(0,-58.387695,-58.387695,0,491.8208,108.375)"
       gradientUnits="userSpaceOnUse"
       y2="0"
       x2="1"
       y1="0"
       x1="0"><stop
         id="stop280"
         offset="0"
         style="stop-opacity:1;stop-color:#7e7c7c" /><stop
         id="stop282"
         offset="0.3185807"
         style="stop-opacity:1;stop-color:#3f3e3d" /><stop
         id="stop284"
         offset="0.399994"
         style="stop-opacity:1;stop-color:#3f3e3d" /><stop
         id="stop286"
         offset="0.40057816"
         style="stop-opacity:1;stop-color:#3f3e3d" /><stop
         id="stop288"
         offset="0.401001"
         style="stop-opacity:1;stop-color:#000000" /><stop
         id="stop290"
         offset="0.9409608"
         style="stop-opacity:1;stop-color:#454343" /><stop
         id="stop292"
         offset="1"
         style="stop-opacity:1;stop-color:#454343" /></linearGradient><clipPath
       id="clipPath304"
       clipPathUnits="userSpaceOnUse"><path
         inkscape:connector-curvature="0"
         id="path302"
         d="m 191.625,111.531 c -2.994,0 -5.807,-1.168 -7.925,-3.289 v 0 c -2.115,-2.12 -3.28,-4.938 -3.28,-7.936 v 0 -40.096 c 0,-2.997 1.165,-5.815 3.28,-7.934 v 0 c 2.118,-2.123 4.931,-3.289 7.925,-3.289 v 0 h 60.022 c 2.992,0 5.807,1.166 7.924,3.289 v 0 c 2.115,2.119 3.281,4.937 3.281,7.934 v 0 1.201 h -70.027 v 12.634 h 67.025 v 12.424 h -67.025 v 12.635 h 70.027 v 1.202 c 0,2.998 -1.166,5.816 -3.281,7.936 v 0 c -2.117,2.121 -4.932,3.289 -7.924,3.289 v 0 z" /></clipPath><linearGradient
       id="linearGradient322"
       spreadMethod="pad"
       gradientTransform="matrix(0,-58.775192,-58.775192,0,221.63623,109.40576)"
       gradientUnits="userSpaceOnUse"
       y2="0"
       x2="1"
       y1="0"
       x1="0"><stop
         id="stop310"
         offset="0"
         style="stop-opacity:1;stop-color:#696262" /><stop
         id="stop312"
         offset="0.357574"
         style="stop-opacity:1;stop-color:#3f3e3d" /><stop
         id="stop314"
         offset="0.4067981"
         style="stop-opacity:1;stop-color:#3f3e3d" /><stop
         id="stop316"
         offset="0.442429"
         style="stop-opacity:1;stop-color:#000000" /><stop
         id="stop318"
         offset="0.68593919"
         style="stop-opacity:1;stop-color:#000000" /><stop
         id="stop320"
         offset="1"
         style="stop-opacity:1;stop-color:#696262" /></linearGradient><clipPath
       id="clipPath332"
       clipPathUnits="userSpaceOnUse"><path
         inkscape:connector-curvature="0"
         id="path330"
         d="m 191.091,111.517 c -2.807,0 -5.448,-1.093 -7.434,-3.079 v 0 c -1.987,-1.985 -3.08,-4.626 -3.08,-7.434 v 0 -40.014 c 0,-2.809 1.093,-5.448 3.08,-7.435 v 0 c 1.984,-1.987 4.625,-3.079 7.434,-3.079 v 0 h 60.022 c 2.808,0 5.448,1.092 7.434,3.079 v 0 c 1.987,1.987 3.08,4.626 3.08,7.435 v 0 0.509 h -70.025 v 13.987 h 67.024 v 11.023 h -67.024 v 13.985 h 70.025 v 0.51 c 0,2.808 -1.093,5.449 -3.08,7.436 v 0 c -1.986,1.984 -4.626,3.077 -7.434,3.077 v 0 z" /></clipPath><linearGradient
       id="linearGradient352"
       spreadMethod="pad"
       gradientTransform="matrix(0,-48.121597,-48.121597,0,221.10205,105.81885)"
       gradientUnits="userSpaceOnUse"
       y2="0"
       x2="1"
       y1="0"
       x1="0"><stop
         id="stop338"
         offset="0"
         style="stop-opacity:1;stop-color:#877f7e" /><stop
         id="stop340"
         offset="0.19418704"
         style="stop-opacity:1;stop-color:#52504f" /><stop
         id="stop342"
         offset="0.40361"
         style="stop-opacity:1;stop-color:#52504f" /><stop
         id="stop344"
         offset="0.5310614"
         style="stop-opacity:1;stop-color:#000000" /><stop
         id="stop346"
         offset="0.539398"
         style="stop-opacity:1;stop-color:#000000" /><stop
         id="stop348"
         offset="0.60940775"
         style="stop-opacity:1;stop-color:#000000" /><stop
         id="stop350"
         offset="1"
         style="stop-opacity:1;stop-color:#696262" /></linearGradient><clipPath
       id="clipPath362"
       clipPathUnits="userSpaceOnUse"><path
         inkscape:connector-curvature="0"
         id="path360"
         d="m 190.975,110.42 c -2.553,0 -4.951,-0.994 -6.756,-2.798 v 0 c -1.802,-1.804 -2.799,-4.204 -2.799,-6.755 v 0 -40.016 c 0,-2.553 0.997,-4.952 2.799,-6.755 v 0 c 1.805,-1.805 4.203,-2.798 6.756,-2.798 v 0 h 60.022 c 2.552,0 4.95,0.993 6.753,2.798 v 0 c 1.699,1.698 2.678,3.922 2.789,6.306 v 0 h -69.564 c -0.248,0 -0.451,0.2 -0.451,0.449 v 0 15.006 c 0,0.248 0.203,0.45 0.451,0.45 v 0 h 66.574 v 9.103 h -66.574 c -0.248,0 -0.451,0.203 -0.451,0.45 v 0 15.007 c 0,0.247 0.203,0.45 0.451,0.45 v 0 h 69.564 c -0.111,2.382 -1.09,4.607 -2.789,6.305 v 0 c -1.803,1.804 -4.201,2.798 -6.753,2.798 v 0 z" /></clipPath><linearGradient
       id="linearGradient374"
       spreadMethod="pad"
       gradientTransform="matrix(0.7875519,-39.249206,-39.249206,-0.7875519,220.53467,103.23438)"
       gradientUnits="userSpaceOnUse"
       y2="0"
       x2="1"
       y1="0"
       x1="0"><stop
         id="stop368"
         offset="0"
         style="stop-opacity:1;stop-color:#e0dee0" /><stop
         id="stop370"
         offset="0.68853926"
         style="stop-opacity:1;stop-color:#696262" /><stop
         id="stop372"
         offset="1"
         style="stop-opacity:1;stop-color:#696262" /></linearGradient><clipPath
       id="clipPath384"
       clipPathUnits="userSpaceOnUse"><path
         inkscape:connector-curvature="0"
         id="path382"
         d="m 191.373,109.952 c -2.457,0 -4.769,-0.957 -6.508,-2.694 v 0 c -1.737,-1.739 -2.694,-4.052 -2.694,-6.509 v 0 -40.015 c 0,-2.459 0.957,-4.769 2.694,-6.508 v 0 c 1.739,-1.738 4.051,-2.695 6.508,-2.695 v 0 h 60.024 c 2.459,0 4.769,0.957 6.508,2.695 v 0 c 1.549,1.549 2.477,3.551 2.662,5.709 v 0 h -69.194 c -0.441,0 -0.798,0.357 -0.798,0.799 v 0 15.006 c 0,0.44 0.357,0.8 0.798,0.8 v 0 H 257.6 v 8.404 h -66.227 c -0.441,0 -0.798,0.358 -0.798,0.799 v 0 15.006 c 0,0.442 0.357,0.8 0.798,0.8 v 0 h 69.194 c -0.185,2.156 -1.113,4.16 -2.662,5.709 v 0 c -1.739,1.737 -4.049,2.694 -6.508,2.694 v 0 z" /></clipPath><linearGradient
       id="linearGradient404"
       spreadMethod="pad"
       gradientTransform="matrix(0,-58.420898,-58.420898,0,221.36865,109.95215)"
       gradientUnits="userSpaceOnUse"
       y2="0"
       x2="1"
       y1="0"
       x1="0"><stop
         id="stop390"
         offset="0"
         style="stop-opacity:1;stop-color:#7e7c7c" /><stop
         id="stop392"
         offset="0.3185807"
         style="stop-opacity:1;stop-color:#3f3e3d" /><stop
         id="stop394"
         offset="0.399994"
         style="stop-opacity:1;stop-color:#3f3e3d" /><stop
         id="stop396"
         offset="0.40057816"
         style="stop-opacity:1;stop-color:#3f3e3d" /><stop
         id="stop398"
         offset="0.401001"
         style="stop-opacity:1;stop-color:#000000" /><stop
         id="stop400"
         offset="0.9409608"
         style="stop-opacity:1;stop-color:#454343" /><stop
         id="stop402"
         offset="1"
         style="stop-opacity:1;stop-color:#454343" /></linearGradient><clipPath
       id="clipPath414"
       clipPathUnits="userSpaceOnUse"><path
         inkscape:connector-curvature="0"
         id="path412"
         d="m 351.383,47.408 h 12.408 v 62.544 h -12.408 z" /></clipPath><linearGradient
       id="linearGradient432"
       spreadMethod="pad"
       gradientTransform="matrix(0,-58.776108,-58.776108,0,357.5874,107.82764)"
       gradientUnits="userSpaceOnUse"
       y2="0"
       x2="1"
       y1="0"
       x1="0"><stop
         id="stop420"
         offset="0"
         style="stop-opacity:1;stop-color:#696262" /><stop
         id="stop422"
         offset="0.357574"
         style="stop-opacity:1;stop-color:#3f3e3d" /><stop
         id="stop424"
         offset="0.4067981"
         style="stop-opacity:1;stop-color:#3f3e3d" /><stop
         id="stop426"
         offset="0.442429"
         style="stop-opacity:1;stop-color:#000000" /><stop
         id="stop428"
         offset="0.68593919"
         style="stop-opacity:1;stop-color:#000000" /><stop
         id="stop430"
         offset="1"
         style="stop-opacity:1;stop-color:#696262" /></linearGradient><clipPath
       id="clipPath442"
       clipPathUnits="userSpaceOnUse"><path
         inkscape:connector-curvature="0"
         id="path440"
         d="m 351.539,48.898 h 11.026 v 61.042 h -11.026 z" /></clipPath><linearGradient
       id="linearGradient462"
       spreadMethod="pad"
       gradientTransform="matrix(0,-48.121597,-48.121597,0,357.05225,104.24072)"
       gradientUnits="userSpaceOnUse"
       y2="0"
       x2="1"
       y1="0"
       x1="0"><stop
         id="stop448"
         offset="0"
         style="stop-opacity:1;stop-color:#877f7e" /><stop
         id="stop450"
         offset="0.19418704"
         style="stop-opacity:1;stop-color:#52504f" /><stop
         id="stop452"
         offset="0.40361"
         style="stop-opacity:1;stop-color:#52504f" /><stop
         id="stop454"
         offset="0.5310614"
         style="stop-opacity:1;stop-color:#000000" /><stop
         id="stop456"
         offset="0.539398"
         style="stop-opacity:1;stop-color:#000000" /><stop
         id="stop458"
         offset="0.60940775"
         style="stop-opacity:1;stop-color:#000000" /><stop
         id="stop460"
         offset="1"
         style="stop-opacity:1;stop-color:#696262" /></linearGradient><clipPath
       id="clipPath472"
       clipPathUnits="userSpaceOnUse"><path
         inkscape:connector-curvature="0"
         id="path470"
         d="m 352.387,49.72 h 9.103 v 59.122 h -9.103 z" /></clipPath><linearGradient
       id="linearGradient484"
       spreadMethod="pad"
       gradientTransform="matrix(0.7741547,-38.58197,-38.58197,-0.7741547,356.49756,101.27637)"
       gradientUnits="userSpaceOnUse"
       y2="0"
       x2="1"
       y1="0"
       x1="0"><stop
         id="stop478"
         offset="0"
         style="stop-opacity:1;stop-color:#e0dee0" /><stop
         id="stop480"
         offset="0.68853926"
         style="stop-opacity:1;stop-color:#696262" /><stop
         id="stop482"
         offset="1"
         style="stop-opacity:1;stop-color:#696262" /></linearGradient><clipPath
       id="clipPath494"
       clipPathUnits="userSpaceOnUse"><path
         inkscape:connector-curvature="0"
         id="path492"
         d="m 353.133,49.952 h 8.407 v 58.424 h -8.407 z" /></clipPath><linearGradient
       id="linearGradient514"
       spreadMethod="pad"
       gradientTransform="matrix(0,-58.422852,-58.422852,0,357.33643,108.375)"
       gradientUnits="userSpaceOnUse"
       y2="0"
       x2="1"
       y1="0"
       x1="0"><stop
         id="stop500"
         offset="0"
         style="stop-opacity:1;stop-color:#7e7c7c" /><stop
         id="stop502"
         offset="0.3185807"
         style="stop-opacity:1;stop-color:#3f3e3d" /><stop
         id="stop504"
         offset="0.399994"
         style="stop-opacity:1;stop-color:#3f3e3d" /><stop
         id="stop506"
         offset="0.40057816"
         style="stop-opacity:1;stop-color:#3f3e3d" /><stop
         id="stop508"
         offset="0.401001"
         style="stop-opacity:1;stop-color:#000000" /><stop
         id="stop510"
         offset="0.9409608"
         style="stop-opacity:1;stop-color:#454343" /><stop
         id="stop512"
         offset="1"
         style="stop-opacity:1;stop-color:#454343" /></linearGradient><clipPath
       id="clipPath524"
       clipPathUnits="userSpaceOnUse"><path
         inkscape:connector-curvature="0"
         id="path522"
         d="m 335.809,109.952 c -1.887,0 -3.744,-0.326 -5.517,-0.969 v 0 c -1.778,-0.644 -3.411,-1.585 -4.86,-2.796 v 0 L 299.926,84.893 h -22.669 v 25.059 h -1.202 c -2.991,0 -5.805,-1.167 -7.922,-3.288 v 0 c -2.117,-2.121 -3.281,-4.94 -3.281,-7.937 v 0 -40.093 c 0,-2.999 1.164,-5.816 3.281,-7.938 v 0 c 2.117,-2.119 4.931,-3.288 7.922,-3.288 v 0 h 1.202 v 25.061 h 22.669 l 25.506,-21.298 c 1.449,-1.209 3.082,-2.149 4.86,-2.791 v 0 c 1.771,-0.646 3.629,-0.972 5.517,-0.972 v 0 h 13.575 l -37.321,31.272 37.321,31.272 z" /></clipPath><linearGradient
       id="linearGradient542"
       spreadMethod="pad"
       gradientTransform="matrix(0,-58.776108,-58.776108,0,307.11768,107.82764)"
       gradientUnits="userSpaceOnUse"
       y2="0"
       x2="1"
       y1="0"
       x1="0"><stop
         id="stop530"
         offset="0"
         style="stop-opacity:1;stop-color:#696262" /><stop
         id="stop532"
         offset="0.357574"
         style="stop-opacity:1;stop-color:#3f3e3d" /><stop
         id="stop534"
         offset="0.4067981"
         style="stop-opacity:1;stop-color:#3f3e3d" /><stop
         id="stop536"
         offset="0.442429"
         style="stop-opacity:1;stop-color:#000000" /><stop
         id="stop538"
         offset="0.68593919"
         style="stop-opacity:1;stop-color:#000000" /><stop
         id="stop540"
         offset="1"
         style="stop-opacity:1;stop-color:#696262" /></linearGradient><clipPath
       id="clipPath552"
       clipPathUnits="userSpaceOnUse"><path
         inkscape:connector-curvature="0"
         id="path550"
         d="m 335.274,109.939 c -1.805,0 -3.582,-0.31 -5.281,-0.925 v 0 c -1.7,-0.614 -3.266,-1.514 -4.653,-2.67 v 0 L 299.647,84.93 h -23.613 v 25.009 h -0.51 c -2.809,0 -5.449,-1.092 -7.437,-3.078 v 0 c -1.985,-1.986 -3.077,-4.626 -3.077,-7.435 v 0 -40.015 c 0,-2.806 1.092,-5.447 3.078,-7.432 v 0 c 1.985,-1.988 4.627,-3.081 7.436,-3.081 v 0 h 0.51 v 25.008 h 23.613 L 325.34,52.493 c 1.391,-1.156 2.956,-2.054 4.653,-2.668 v 0 c 1.697,-0.615 3.476,-0.927 5.281,-0.927 v 0 h 11.68 l -36.498,30.521 36.498,30.52 z" /></clipPath><linearGradient
       id="linearGradient572"
       spreadMethod="pad"
       gradientTransform="matrix(0,-48.121597,-48.121597,0,305.98193,104.24072)"
       gradientUnits="userSpaceOnUse"
       y2="0"
       x2="1"
       y1="0"
       x1="0"><stop
         id="stop558"
         offset="0"
         style="stop-opacity:1;stop-color:#877f7e" /><stop
         id="stop560"
         offset="0.19418704"
         style="stop-opacity:1;stop-color:#52504f" /><stop
         id="stop562"
         offset="0.40361"
         style="stop-opacity:1;stop-color:#52504f" /><stop
         id="stop564"
         offset="0.5310614"
         style="stop-opacity:1;stop-color:#000000" /><stop
         id="stop566"
         offset="0.539398"
         style="stop-opacity:1;stop-color:#000000" /><stop
         id="stop568"
         offset="0.60940775"
         style="stop-opacity:1;stop-color:#000000" /><stop
         id="stop570"
         offset="1"
         style="stop-opacity:1;stop-color:#696262" /></linearGradient><clipPath
       id="clipPath582"
       clipPathUnits="userSpaceOnUse"><path
         inkscape:connector-curvature="0"
         id="path580"
         d="m 335.159,108.842 c -1.695,0 -3.363,-0.292 -4.955,-0.868 v 0 c -1.596,-0.579 -3.063,-1.421 -4.364,-2.506 v 0 L 300.001,83.937 c -0.08,-0.067 -0.182,-0.105 -0.287,-0.105 v 0 h -24.31 c -0.247,0 -0.449,0.202 -0.449,0.451 v 0 24.549 c -2.382,-0.11 -4.607,-1.089 -6.306,-2.788 v 0 c -1.804,-1.806 -2.797,-4.205 -2.797,-6.756 v 0 -40.015 c 0,-2.55 0.993,-4.951 2.797,-6.755 v 0 c 1.699,-1.699 3.924,-2.677 6.306,-2.788 v 0 24.55 c 0,0.247 0.202,0.449 0.449,0.449 v 0 h 24.31 c 0.105,0 0.207,-0.038 0.287,-0.103 v 0 L 325.84,53.094 c 1.301,-1.084 2.768,-1.929 4.364,-2.505 v 0 c 1.592,-0.576 3.26,-0.869 4.955,-0.869 v 0 h 9.035 l -34.83,29.124 c -0.036,0.013 -0.071,0.029 -0.104,0.048 v 0 c -0.139,0.083 -0.222,0.26 -0.222,0.419 v 0 c 0,0.159 0.111,0.291 0.248,0.372 v 0 c 0.025,0.016 0.05,0.026 0.078,0.034 v 0 l 34.83,29.125 z" /></clipPath><linearGradient
       id="linearGradient594"
       spreadMethod="pad"
       gradientTransform="matrix(0.7897949,-39.361038,-39.361038,-0.7897949,304.66943,101.62549)"
       gradientUnits="userSpaceOnUse"
       y2="0"
       x2="1"
       y1="0"
       x1="0"><stop
         id="stop588"
         offset="0"
         style="stop-opacity:1;stop-color:#e0dee0" /><stop
         id="stop590"
         offset="0.68853926"
         style="stop-opacity:1;stop-color:#696262" /><stop
         id="stop592"
         offset="1"
         style="stop-opacity:1;stop-color:#696262" /></linearGradient><clipPath
       id="clipPath604"
       clipPathUnits="userSpaceOnUse"><path
         inkscape:connector-curvature="0"
         id="path602"
         d="m 335.557,108.375 c -1.654,0 -3.282,-0.285 -4.834,-0.848 v 0 c -1.556,-0.564 -2.988,-1.386 -4.26,-2.445 v 0 L 300.625,83.551 c -0.144,-0.119 -0.324,-0.186 -0.511,-0.186 v 0 h -24.307 c -0.443,0 -0.803,0.358 -0.803,0.8 v 0 24.176 c -2.154,-0.184 -4.158,-1.114 -5.707,-2.661 v 0 c -1.736,-1.74 -2.695,-4.051 -2.695,-6.509 v 0 -40.014 c 0,-2.459 0.959,-4.769 2.695,-6.509 v 0 c 1.549,-1.546 3.553,-2.477 5.707,-2.661 v 0 24.175 c 0,0.443 0.36,0.8 0.803,0.8 v 0 h 24.307 c 0.187,0 0.367,-0.066 0.511,-0.185 v 0 l 25.838,-21.533 c 1.272,-1.057 2.704,-1.879 4.26,-2.444 v 0 c 1.552,-0.563 3.18,-0.848 4.834,-0.848 v 0 h 8.072 L 309.58,78.424 c -0.032,0.015 -0.066,0.031 -0.097,0.051 v 0 c -0.247,0.145 -0.394,0.435 -0.394,0.719 v 0 c 0,0.283 0.177,0.531 0.419,0.674 v 0 c 0.025,0.015 0.049,0.028 0.075,0.039 v 0 l 34.046,28.468 z" /></clipPath><linearGradient
       id="linearGradient624"
       spreadMethod="pad"
       gradientTransform="matrix(0,-58.422852,-58.422852,0,305.11572,108.375)"
       gradientUnits="userSpaceOnUse"
       y2="0"
       x2="1"
       y1="0"
       x1="0"><stop
         id="stop610"
         offset="0"
         style="stop-opacity:1;stop-color:#7e7c7c" /><stop
         id="stop612"
         offset="0.3185807"
         style="stop-opacity:1;stop-color:#3f3e3d" /><stop
         id="stop614"
         offset="0.399994"
         style="stop-opacity:1;stop-color:#3f3e3d" /><stop
         id="stop616"
         offset="0.40057816"
         style="stop-opacity:1;stop-color:#3f3e3d" /><stop
         id="stop618"
         offset="0.401001"
         style="stop-opacity:1;stop-color:#000000" /><stop
         id="stop620"
         offset="0.9409608"
         style="stop-opacity:1;stop-color:#454343" /><stop
         id="stop622"
         offset="1"
         style="stop-opacity:1;stop-color:#454343" /></linearGradient><clipPath
       id="clipPath634"
       clipPathUnits="userSpaceOnUse"><path
         inkscape:connector-curvature="0"
         id="path632"
         d="m 377.629,109.952 c -2.99,0 -5.808,-1.167 -7.922,-3.288 v 0 c -2.116,-2.121 -3.283,-4.94 -3.283,-7.937 v 0 -40.093 c 0,-2.999 1.167,-5.816 3.283,-7.938 v 0 c 2.114,-2.119 4.932,-3.288 7.922,-3.288 v 0 h 1.202 v 25.061 h 58.822 c 2.992,0 5.805,1.165 7.922,3.288 v 0 c 2.115,2.12 3.281,4.938 3.281,7.934 v 0 15.036 c 0,2.997 -1.166,5.816 -3.281,7.937 v 0 c -2.117,2.121 -4.93,3.288 -7.922,3.288 v 0 z m 1.202,-12.425 h 57.621 V 84.893 h -57.621 z" /></clipPath><linearGradient
       id="linearGradient652"
       spreadMethod="pad"
       gradientTransform="matrix(0,-58.776108,-58.776108,0,407.64014,107.82764)"
       gradientUnits="userSpaceOnUse"
       y2="0"
       x2="1"
       y1="0"
       x1="0"><stop
         id="stop640"
         offset="0"
         style="stop-opacity:1;stop-color:#696262" /><stop
         id="stop642"
         offset="0.357574"
         style="stop-opacity:1;stop-color:#3f3e3d" /><stop
         id="stop644"
         offset="0.4067981"
         style="stop-opacity:1;stop-color:#3f3e3d" /><stop
         id="stop646"
         offset="0.442429"
         style="stop-opacity:1;stop-color:#000000" /><stop
         id="stop648"
         offset="0.68593919"
         style="stop-opacity:1;stop-color:#000000" /><stop
         id="stop650"
         offset="1"
         style="stop-opacity:1;stop-color:#696262" /></linearGradient><clipPath
       id="clipPath662"
       clipPathUnits="userSpaceOnUse"><path
         inkscape:connector-curvature="0"
         id="path660"
         d="m 377.095,109.939 c -2.807,0 -5.448,-1.092 -7.434,-3.078 v 0 c -1.987,-1.986 -3.08,-4.626 -3.08,-7.435 v 0 -40.015 c 0,-2.806 1.093,-5.447 3.08,-7.432 v 0 c 1.984,-1.988 4.627,-3.081 7.434,-3.081 v 0 h 0.511 v 25.008 h 59.511 c 2.811,0 5.448,1.094 7.438,3.081 v 0 c 1.983,1.985 3.076,4.628 3.076,7.434 v 0 15.005 c 0,2.809 -1.093,5.449 -3.076,7.436 v 0 c -1.99,1.985 -4.631,3.077 -7.438,3.077 v 0 z m 0.511,-11.023 h 59.002 V 84.93 h -59.002 z" /></clipPath><linearGradient
       id="linearGradient682"
       spreadMethod="pad"
       gradientTransform="matrix(0,-48.121597,-48.121597,0,407.10596,104.24072)"
       gradientUnits="userSpaceOnUse"
       y2="0"
       x2="1"
       y1="0"
       x1="0"><stop
         id="stop668"
         offset="0"
         style="stop-opacity:1;stop-color:#877f7e" /><stop
         id="stop670"
         offset="0.19418704"
         style="stop-opacity:1;stop-color:#52504f" /><stop
         id="stop672"
         offset="0.40361"
         style="stop-opacity:1;stop-color:#52504f" /><stop
         id="stop674"
         offset="0.5310614"
         style="stop-opacity:1;stop-color:#000000" /><stop
         id="stop676"
         offset="0.539398"
         style="stop-opacity:1;stop-color:#000000" /><stop
         id="stop678"
         offset="0.60940775"
         style="stop-opacity:1;stop-color:#000000" /><stop
         id="stop680"
         offset="1"
         style="stop-opacity:1;stop-color:#696262" /></linearGradient><clipPath
       id="clipPath692"
       clipPathUnits="userSpaceOnUse"><path
         inkscape:connector-curvature="0"
         id="path690"
         d="m 376.979,108.842 c -2.551,0 -4.951,-0.994 -6.756,-2.798 v 0 c -1.803,-1.806 -2.797,-4.205 -2.797,-6.756 v 0 -40.015 c 0,-2.55 0.994,-4.951 2.797,-6.755 v 0 c 1.698,-1.699 3.924,-2.677 6.305,-2.788 v 0 24.55 c 0,0.247 0.203,0.449 0.451,0.449 v 0 h 60.023 c 2.551,0 4.949,0.994 6.756,2.797 v 0 c 1.803,1.806 2.799,4.207 2.799,6.757 v 0 15.005 c 0,2.551 -0.996,4.95 -2.799,6.756 v 0 c -1.807,1.804 -4.205,2.798 -6.756,2.798 v 0 z m -0.451,-24.559 v 15.005 c 0,0.248 0.203,0.45 0.451,0.45 v 0 h 60.023 c 0.249,0 0.449,-0.202 0.449,-0.45 v 0 -15.005 c 0,-0.249 -0.2,-0.451 -0.449,-0.451 v 0 h -60.023 c -0.248,0 -0.451,0.202 -0.451,0.451" /></clipPath><linearGradient
       id="linearGradient704"
       spreadMethod="pad"
       gradientTransform="matrix(0.7715607,-38.452347,-38.452347,-0.7715607,406.53955,101.81445)"
       gradientUnits="userSpaceOnUse"
       y2="0"
       x2="1"
       y1="0"
       x1="0"><stop
         id="stop698"
         offset="0"
         style="stop-opacity:1;stop-color:#e0dee0" /><stop
         id="stop700"
         offset="0.68853926"
         style="stop-opacity:1;stop-color:#696262" /><stop
         id="stop702"
         offset="1"
         style="stop-opacity:1;stop-color:#696262" /></linearGradient><clipPath
       id="clipPath714"
       clipPathUnits="userSpaceOnUse"><path
         inkscape:connector-curvature="0"
         id="path712"
         d="m 377.377,108.375 c -2.459,0 -4.769,-0.958 -6.503,-2.695 v 0 c -1.743,-1.74 -2.698,-4.051 -2.698,-6.509 v 0 -40.014 c 0,-2.459 0.955,-4.769 2.693,-6.509 v 0 c 1.551,-1.546 3.553,-2.477 5.71,-2.661 v 0 24.175 c 0,0.443 0.357,0.8 0.798,0.8 v 0 h 60.024 c 2.459,0 4.769,0.957 6.508,2.695 v 0 c 1.738,1.738 2.697,4.051 2.697,6.508 v 0 15.006 c 0,2.458 -0.959,4.769 -2.697,6.509 v 0 c -1.739,1.737 -4.049,2.695 -6.508,2.695 v 0 z m -0.798,-24.21 v 15.006 c 0,0.441 0.357,0.801 0.798,0.801 v 0 h 60.024 c 0.444,0 0.799,-0.36 0.799,-0.801 v 0 -15.006 c 0,-0.442 -0.355,-0.8 -0.799,-0.8 v 0 h -60.024 c -0.441,0 -0.798,0.358 -0.798,0.8" /></clipPath><linearGradient
       id="linearGradient734"
       spreadMethod="pad"
       gradientTransform="matrix(0,-58.387695,-58.387695,0,407.39111,108.375)"
       gradientUnits="userSpaceOnUse"
       y2="0"
       x2="1"
       y1="0"
       x1="0"><stop
         id="stop720"
         offset="0"
         style="stop-opacity:1;stop-color:#7e7c7c" /><stop
         id="stop722"
         offset="0.3185807"
         style="stop-opacity:1;stop-color:#3f3e3d" /><stop
         id="stop724"
         offset="0.399994"
         style="stop-opacity:1;stop-color:#3f3e3d" /><stop
         id="stop726"
         offset="0.40057816"
         style="stop-opacity:1;stop-color:#3f3e3d" /><stop
         id="stop728"
         offset="0.401001"
         style="stop-opacity:1;stop-color:#000000" /><stop
         id="stop730"
         offset="0.9409608"
         style="stop-opacity:1;stop-color:#454343" /><stop
         id="stop732"
         offset="1"
         style="stop-opacity:1;stop-color:#454343" /></linearGradient><clipPath
       id="clipPath744"
       clipPathUnits="userSpaceOnUse"><path
         inkscape:connector-curvature="0"
         id="path742"
         d="m 546.491,109.952 c -2.995,0 -5.807,-1.167 -7.927,-3.288 v 0 c -2.113,-2.121 -3.278,-4.94 -3.278,-7.937 v 0 -40.093 c 0,-2.999 1.165,-5.816 3.278,-7.938 v 0 c 2.12,-2.119 4.932,-3.288 7.927,-3.288 v 0 h 1.201 v 25.061 h 30.377 l 25.502,-21.298 c 1.449,-1.209 3.086,-2.149 4.86,-2.791 v 0 c 1.771,-0.646 3.626,-0.972 5.517,-0.972 v 0 h 12.875 l -29.909,25.061 h 9.6 c 2.99,0 5.805,1.165 7.922,3.288 v 0 c 2.115,2.12 3.282,4.938 3.282,7.934 v 0 15.036 c 0,2.997 -1.167,5.816 -3.282,7.937 v 0 c -2.117,2.121 -4.932,3.288 -7.922,3.288 v 0 z m 1.201,-12.425 h 57.621 V 84.893 h -57.621 z" /></clipPath><linearGradient
       id="linearGradient762"
       spreadMethod="pad"
       gradientTransform="matrix(0,-58.776108,-58.776108,0,581.0542,107.82764)"
       gradientUnits="userSpaceOnUse"
       y2="0"
       x2="1"
       y1="0"
       x1="0"><stop
         id="stop750"
         offset="0"
         style="stop-opacity:1;stop-color:#696262" /><stop
         id="stop752"
         offset="0.357574"
         style="stop-opacity:1;stop-color:#3f3e3d" /><stop
         id="stop754"
         offset="0.4067981"
         style="stop-opacity:1;stop-color:#3f3e3d" /><stop
         id="stop756"
         offset="0.442429"
         style="stop-opacity:1;stop-color:#000000" /><stop
         id="stop758"
         offset="0.68593919"
         style="stop-opacity:1;stop-color:#000000" /><stop
         id="stop760"
         offset="1"
         style="stop-opacity:1;stop-color:#696262" /></linearGradient><clipPath
       id="clipPath772"
       clipPathUnits="userSpaceOnUse"><path
         inkscape:connector-curvature="0"
         id="path770"
         d="m 545.96,109.939 c -2.809,0 -5.448,-1.092 -7.438,-3.078 v 0 c -1.986,-1.986 -3.076,-4.626 -3.076,-7.435 v 0 -40.015 c 0,-2.806 1.09,-5.447 3.08,-7.432 v 0 c 1.982,-1.988 4.625,-3.081 7.434,-3.081 v 0 h 0.509 v 25.008 h 31.317 l 25.697,-21.413 c 1.386,-1.156 2.949,-2.054 4.651,-2.668 v 0 c 1.697,-0.615 3.474,-0.927 5.279,-0.927 v 0 h 10.978 l -29.908,25.008 h 11.498 c 2.809,0 5.447,1.094 7.434,3.081 v 0 c 1.984,1.985 3.08,4.628 3.08,7.434 v 0 15.005 c 0,2.809 -1.096,5.449 -3.08,7.436 v 0 c -1.987,1.985 -4.625,3.077 -7.434,3.077 v 0 z m 0.509,-11.023 h 59.002 V 84.93 h -59.002 z" /></clipPath><linearGradient
       id="linearGradient792"
       spreadMethod="pad"
       gradientTransform="matrix(0,-48.121597,-48.121597,0,579.91846,104.24072)"
       gradientUnits="userSpaceOnUse"
       y2="0"
       x2="1"
       y1="0"
       x1="0"><stop
         id="stop778"
         offset="0"
         style="stop-opacity:1;stop-color:#877f7e" /><stop
         id="stop780"
         offset="0.19418704"
         style="stop-opacity:1;stop-color:#52504f" /><stop
         id="stop782"
         offset="0.40361"
         style="stop-opacity:1;stop-color:#52504f" /><stop
         id="stop784"
         offset="0.5310614"
         style="stop-opacity:1;stop-color:#000000" /><stop
         id="stop786"
         offset="0.539398"
         style="stop-opacity:1;stop-color:#000000" /><stop
         id="stop788"
         offset="0.60940775"
         style="stop-opacity:1;stop-color:#000000" /><stop
         id="stop790"
         offset="1"
         style="stop-opacity:1;stop-color:#696262" /></linearGradient><clipPath
       id="clipPath802"
       clipPathUnits="userSpaceOnUse"><path
         inkscape:connector-curvature="0"
         id="path800"
         d="m 545.84,108.842 c -2.551,0 -4.951,-0.994 -6.755,-2.798 v 0 c -1.803,-1.806 -2.798,-4.205 -2.798,-6.756 v 0 -40.015 c 0,-2.55 0.995,-4.951 2.798,-6.755 v 0 c 1.699,-1.699 3.924,-2.677 6.304,-2.788 v 0 24.55 c 0,0.247 0.204,0.449 0.451,0.449 v 0 h 32.014 c 0.103,0 0.207,-0.038 0.285,-0.103 v 0 l 25.84,-21.532 c 1.301,-1.084 2.769,-1.929 4.362,-2.505 v 0 c 1.595,-0.576 3.261,-0.869 4.956,-0.869 v 0 h 8.332 l -28.957,24.213 c -0.144,0.122 -0.197,0.321 -0.135,0.499 v 0 c 0.065,0.178 0.235,0.297 0.426,0.297 v 0 h 12.901 c 2.55,0 4.949,0.994 6.752,2.797 v 0 c 1.806,1.806 2.8,4.207 2.8,6.757 v 0 15.005 c 0,2.551 -0.994,4.95 -2.8,6.756 v 0 c -1.803,1.804 -4.202,2.798 -6.752,2.798 v 0 z m -0.451,-24.559 v 15.005 c 0,0.248 0.204,0.45 0.451,0.45 v 0 h 60.024 c 0.248,0 0.449,-0.202 0.449,-0.45 v 0 -15.005 c 0,-0.249 -0.201,-0.451 -0.449,-0.451 v 0 H 545.84 c -0.247,0 -0.451,0.202 -0.451,0.451" /></clipPath><linearGradient
       id="linearGradient814"
       spreadMethod="pad"
       gradientTransform="matrix(0.7916565,-39.453812,-39.453812,-0.7916565,578.01123,101.66846)"
       gradientUnits="userSpaceOnUse"
       y2="0"
       x2="1"
       y1="0"
       x1="0"><stop
         id="stop808"
         offset="0"
         style="stop-opacity:1;stop-color:#e0dee0" /><stop
         id="stop810"
         offset="0.68853926"
         style="stop-opacity:1;stop-color:#696262" /><stop
         id="stop812"
         offset="1"
         style="stop-opacity:1;stop-color:#696262" /></linearGradient><clipPath
       id="clipPath824"
       clipPathUnits="userSpaceOnUse"><path
         inkscape:connector-curvature="0"
         id="path822"
         d="m 546.242,108.375 c -2.458,0 -4.769,-0.958 -6.508,-2.695 v 0 c -1.741,-1.74 -2.697,-4.051 -2.697,-6.509 v 0 -40.014 c 0,-2.459 0.956,-4.769 2.697,-6.509 v 0 c 1.549,-1.546 3.554,-2.477 5.706,-2.661 v 0 24.175 c 0,0.443 0.36,0.8 0.802,0.8 v 0 h 32.011 c 0.189,0 0.367,-0.066 0.513,-0.185 v 0 l 25.836,-21.533 c 1.272,-1.057 2.705,-1.879 4.26,-2.444 v 0 c 1.555,-0.563 3.181,-0.848 4.834,-0.848 v 0 h 7.369 L 592.85,73.549 c -0.259,0.215 -0.353,0.571 -0.241,0.886 v 0 c 0.116,0.315 0.417,0.527 0.755,0.527 v 0 h 12.902 c 2.455,0 4.766,0.957 6.508,2.695 v 0 c 1.734,1.738 2.694,4.051 2.694,6.508 v 0 15.006 c 0,2.458 -0.96,4.769 -2.694,6.509 v 0 c -1.742,1.737 -4.053,2.695 -6.508,2.695 v 0 z m -0.802,-24.21 v 15.006 c 0,0.441 0.36,0.801 0.802,0.801 v 0 h 60.024 c 0.439,0 0.799,-0.36 0.799,-0.801 v 0 -15.006 c 0,-0.442 -0.36,-0.8 -0.799,-0.8 v 0 h -60.024 c -0.442,0 -0.802,0.358 -0.802,0.8" /></clipPath><linearGradient
       id="linearGradient844"
       spreadMethod="pad"
       gradientTransform="matrix(0,-58.422852,-58.422852,0,579.05127,108.375)"
       gradientUnits="userSpaceOnUse"
       y2="0"
       x2="1"
       y1="0"
       x1="0"><stop
         id="stop830"
         offset="0"
         style="stop-opacity:1;stop-color:#7e7c7c" /><stop
         id="stop832"
         offset="0.3185807"
         style="stop-opacity:1;stop-color:#3f3e3d" /><stop
         id="stop834"
         offset="0.399994"
         style="stop-opacity:1;stop-color:#3f3e3d" /><stop
         id="stop836"
         offset="0.40057816"
         style="stop-opacity:1;stop-color:#3f3e3d" /><stop
         id="stop838"
         offset="0.401001"
         style="stop-opacity:1;stop-color:#000000" /><stop
         id="stop840"
         offset="0.9409608"
         style="stop-opacity:1;stop-color:#454343" /><stop
         id="stop842"
         offset="1"
         style="stop-opacity:1;stop-color:#454343" /></linearGradient><clipPath
       id="clipPath854"
       clipPathUnits="userSpaceOnUse"><path
         inkscape:connector-curvature="0"
         id="path852"
         d="M 0,164.541 H 675.961 V 0 H 0 Z" /></clipPath><filter
       style="color-interpolation-filters:sRGB"
       inkscape:label="Lightness-Contrast"
       id="filter711"><feColorMatrix
         values="-1 0 0 0 1 0 -1 0 0 1 0 0 -1 0 1 -0.21 -0.72 -0.07 2 0 "
         result="fbSourceGraphic"
         id="feColorMatrix709" /><feColorMatrix
         result="fbSourceGraphicAlpha"
         in="fbSourceGraphic"
         values="0 0 0 -1 0 0 0 0 -1 0 0 0 0 -1 0 0 0 0 1 0"
         id="feColorMatrix881" /><feColorMatrix
         id="feColorMatrix883"
         values="0.75 0 0 0.21875 0.125 0 0.75 0 0.21875 0.125 0 0 0.75 0.21875 0.125 0 0 0 1 0"
         in="fbSourceGraphic" /></filter></defs><sodipodi:namedview
     inkscape:pagecheckerboard="false"
     inkscape:current-layer="g10"
     inkscape:window-maximized="1"
     inkscape:window-y="-9"
     inkscape:window-x="-9"
     inkscape:cy="98.943679"
     inkscape:cx="322.22313"
     inkscape:zoom="1.8107581"
     showgrid="false"
     id="namedview4"
     inkscape:window-height="1001"
     inkscape:window-width="1920"
     inkscape:pageshadow="2"
     inkscape:pageopacity="0"
     guidetolerance="10"
     gridtolerance="10"
     objecttolerance="10"
     borderopacity="1"
     bordercolor="#666666"
     pagecolor="#333333"
     inkscape:document-rotation="0" /><g
     transform="matrix(1.3333333,0,0,-1.3333333,0,219.388)"
     inkscape:label="LOGO_EKIPAR"
     inkscape:groupmode="layer"
     id="g10"><g
       style="filter:url(#filter711)"
       id="g188"
       transform="translate(-148.62149,47.571503)"><g
         clip-path="url(#clipPath194)"
         id="g190"><g
           id="g196"><g
             id="g198"><path
               inkscape:connector-curvature="0"
               id="path214"
               style="fill:url(#linearGradient212);stroke:none"
               d="m 481.209,109.952 c -2.136,0 -4.224,-0.416 -6.202,-1.237 v 0 c -1.975,-0.818 -3.745,-2.003 -5.258,-3.518 v 0 L 455.602,91.021 c -1.512,-1.516 -2.693,-3.289 -3.511,-5.268 v 0 c -0.819,-1.98 -1.235,-4.069 -1.235,-6.212 v 0 -20.907 c 0,-2.999 1.166,-5.818 3.283,-7.938 v 0 c 2.115,-2.119 4.929,-3.288 7.922,-3.288 v 0 h 1.2 v 20.048 h 57.62 V 47.408 h 1.204 c 2.994,0 5.806,1.169 7.921,3.288 v 0 c 2.117,2.12 3.28,4.939 3.28,7.938 v 0 40.093 c 0,2.998 -1.163,5.817 -3.28,7.937 v 0 c -2.115,2.121 -4.927,3.288 -7.921,3.288 v 0 z m -17.948,-28.833 16.374,16.408 h 41.246 V 79.881 h -57.62 z" /></g></g></g></g><g
       transform="translate(-147.68801,49.702941)"
       id="g504"><g
         transform="translate(-0.9334805,-2.1314384)"
         id="g216"
         style="filter:url(#filter711)"><g
           id="g218"
           clip-path="url(#clipPath222)"><g
             id="g224"><g
               id="g226"><path
                 d="m 480.675,109.94 c -2.048,0 -4.046,-0.397 -5.936,-1.18 v 0 c -1.895,-0.784 -3.586,-1.916 -5.033,-3.365 v 0 L 455.557,91.25 c -1.447,-1.45 -2.578,-3.145 -3.363,-5.035 v 0 c -0.784,-1.89 -1.184,-3.888 -1.184,-5.938 v 0 -20.864 c 0,-2.81 1.096,-5.449 3.08,-7.436 v 0 c 1.987,-1.986 4.629,-3.077 7.438,-3.077 v 0 h 0.51 v 20.006 h 59 V 48.9 h 0.511 c 2.809,0 5.448,1.091 7.434,3.077 v 0 c 1.986,1.987 3.08,4.626 3.08,7.436 v 0 40.014 c 0,2.808 -1.094,5.448 -3.08,7.434 v 0 c -1.986,1.987 -4.625,3.079 -7.434,3.079 v 0 z m -18.637,-27.802 16.777,16.779 h 42.223 V 79.93 h -59 z"
                 style="fill:url(#linearGradient242);stroke:none"
                 id="path244"
                 inkscape:connector-curvature="0" /></g></g></g></g><g
         transform="translate(-0.9334805,-2.1314384)"
         id="g246"
         style="filter:url(#filter711)"><g
           id="g248"
           clip-path="url(#clipPath252)"><g
             id="g254"><g
               id="g256"><path
                 d="m 480.56,108.842 c -1.921,0 -3.796,-0.372 -5.57,-1.108 v 0 c -1.775,-0.735 -3.365,-1.797 -4.724,-3.156 v 0 L 456.12,90.432 c -1.358,-1.36 -2.42,-2.948 -3.155,-4.722 v 0 c -0.736,-1.776 -1.107,-3.651 -1.107,-5.57 v 0 -20.867 c 0,-2.55 0.994,-4.951 2.797,-6.755 v 0 c 1.697,-1.699 3.922,-2.677 6.304,-2.788 v 0 19.547 c 0,0.25 0.204,0.451 0.451,0.451 v 0 h 60.024 c 0.246,0 0.451,-0.201 0.451,-0.451 v 0 -19.547 c 2.381,0.111 4.608,1.089 6.305,2.788 v 0 c 1.803,1.804 2.797,4.205 2.797,6.755 v 0 40.015 c 0,2.552 -0.994,4.951 -2.797,6.756 v 0 c -1.807,1.804 -4.206,2.798 -6.756,2.798 v 0 z M 460.959,79.281 v 2.929 c 0,0.12 0.049,0.235 0.133,0.319 v 0 l 17.078,17.078 c 0.085,0.083 0.2,0.131 0.319,0.131 v 0 h 42.945 c 0.246,0 0.451,-0.202 0.451,-0.45 v 0 -20.007 c 0,-0.247 -0.205,-0.451 -0.451,-0.451 v 0 H 461.41 c -0.247,0 -0.451,0.204 -0.451,0.451"
                 style="fill:url(#linearGradient264);stroke:none"
                 id="path266"
                 inkscape:connector-curvature="0" /></g></g></g></g><g
         transform="translate(-0.9334805,-2.1314384)"
         id="g268"
         style="filter:url(#filter711)"><g
           id="g270"
           clip-path="url(#clipPath274)"><g
             id="g276"><g
               id="g278"><path
                 d="m 480.962,108.375 c -1.878,0 -3.707,-0.364 -5.44,-1.082 v 0 c -1.73,-0.717 -3.281,-1.754 -4.608,-3.079 v 0 L 456.768,90.068 c -1.328,-1.328 -2.362,-2.879 -3.08,-4.609 v 0 c -0.717,-1.732 -1.083,-3.562 -1.083,-5.436 v 0 -20.866 c 0,-2.459 0.96,-4.769 2.698,-6.509 v 0 c 1.549,-1.546 3.551,-2.477 5.705,-2.661 v 0 19.174 c 0,0.441 0.362,0.798 0.803,0.798 v 0 h 60.022 c 0.443,0 0.798,-0.357 0.798,-0.798 v 0 -19.174 c 2.158,0.184 4.161,1.115 5.709,2.661 v 0 c 1.738,1.74 2.696,4.05 2.696,6.509 v 0 40.014 c 0,2.458 -0.958,4.769 -2.696,6.509 v 0 c -1.738,1.737 -4.049,2.695 -6.507,2.695 v 0 z M 461.008,79.164 v 2.93 c 0,0.212 0.086,0.416 0.235,0.566 v 0 l 17.078,17.076 c 0.152,0.151 0.353,0.236 0.568,0.236 v 0 h 42.944 c 0.443,0 0.798,-0.36 0.798,-0.801 v 0 -20.007 c 0,-0.441 -0.355,-0.801 -0.798,-0.801 v 0 h -60.022 c -0.441,0 -0.803,0.36 -0.803,0.801"
                 style="fill:url(#linearGradient294);stroke:none"
                 id="path296"
                 inkscape:connector-curvature="0" /></g></g></g></g></g><g
       id="g784"><g
         transform="translate(-178.62149,47.571503)"
         id="g298"
         style="filter:url(#filter711)"><g
           id="g300"
           clip-path="url(#clipPath304)"><g
             id="g306"><g
               id="g308"><path
                 d="m 191.625,111.531 c -2.994,0 -5.807,-1.168 -7.925,-3.289 v 0 c -2.115,-2.12 -3.28,-4.938 -3.28,-7.936 v 0 -40.096 c 0,-2.997 1.165,-5.815 3.28,-7.934 v 0 c 2.118,-2.123 4.931,-3.289 7.925,-3.289 v 0 h 60.022 c 2.992,0 5.807,1.166 7.924,3.289 v 0 c 2.115,2.119 3.281,4.937 3.281,7.934 v 0 1.201 h -70.027 v 12.634 h 67.025 v 12.424 h -67.025 v 12.635 h 70.027 v 1.202 c 0,2.998 -1.166,5.816 -3.281,7.936 v 0 c -2.117,2.121 -4.932,3.289 -7.924,3.289 v 0 z"
                 style="fill:url(#linearGradient322);stroke:none"
                 id="path324"
                 inkscape:connector-curvature="0" /></g></g></g></g><g
         transform="translate(-178.62149,47.571503)"
         id="g326"
         style="filter:url(#filter711)"><g
           id="g328"
           clip-path="url(#clipPath332)"><g
             id="g334"><g
               id="g336"><path
                 d="m 191.091,111.517 c -2.807,0 -5.448,-1.093 -7.434,-3.079 v 0 c -1.987,-1.985 -3.08,-4.626 -3.08,-7.434 v 0 -40.014 c 0,-2.809 1.093,-5.448 3.08,-7.435 v 0 c 1.984,-1.987 4.625,-3.079 7.434,-3.079 v 0 h 60.022 c 2.808,0 5.448,1.092 7.434,3.079 v 0 c 1.987,1.987 3.08,4.626 3.08,7.435 v 0 0.509 h -70.025 v 13.987 h 67.024 v 11.023 h -67.024 v 13.985 h 70.025 v 0.51 c 0,2.808 -1.093,5.449 -3.08,7.436 v 0 c -1.986,1.984 -4.626,3.077 -7.434,3.077 v 0 z"
                 style="fill:url(#linearGradient352);stroke:none"
                 id="path354"
                 inkscape:connector-curvature="0" /></g></g></g></g><g
         transform="translate(-178.62149,47.571503)"
         id="g356"
         style="filter:url(#filter711)"><g
           id="g358"
           clip-path="url(#clipPath362)"><g
             id="g364"><g
               id="g366"><path
                 d="m 190.975,110.42 c -2.553,0 -4.951,-0.994 -6.756,-2.798 v 0 c -1.802,-1.804 -2.799,-4.204 -2.799,-6.755 v 0 -40.016 c 0,-2.553 0.997,-4.952 2.799,-6.755 v 0 c 1.805,-1.805 4.203,-2.798 6.756,-2.798 v 0 h 60.022 c 2.552,0 4.95,0.993 6.753,2.798 v 0 c 1.699,1.698 2.678,3.922 2.789,6.306 v 0 h -69.564 c -0.248,0 -0.451,0.2 -0.451,0.449 v 0 15.006 c 0,0.248 0.203,0.45 0.451,0.45 v 0 h 66.574 v 9.103 h -66.574 c -0.248,0 -0.451,0.203 -0.451,0.45 v 0 15.007 c 0,0.247 0.203,0.45 0.451,0.45 v 0 h 69.564 c -0.111,2.382 -1.09,4.607 -2.789,6.305 v 0 c -1.803,1.804 -4.201,2.798 -6.753,2.798 v 0 z"
                 style="fill:url(#linearGradient374);stroke:none"
                 id="path376"
                 inkscape:connector-curvature="0" /></g></g></g></g><g
         transform="translate(-178.62149,47.571503)"
         id="g378"
         style="filter:url(#filter711)"><g
           id="g380"
           clip-path="url(#clipPath384)"><g
             id="g386"><g
               id="g388"><path
                 d="m 191.373,109.952 c -2.457,0 -4.769,-0.957 -6.508,-2.694 v 0 c -1.737,-1.739 -2.694,-4.052 -2.694,-6.509 v 0 -40.015 c 0,-2.459 0.957,-4.769 2.694,-6.508 v 0 c 1.739,-1.738 4.051,-2.695 6.508,-2.695 v 0 h 60.024 c 2.459,0 4.769,0.957 6.508,2.695 v 0 c 1.549,1.549 2.477,3.551 2.662,5.709 v 0 h -69.194 c -0.441,0 -0.798,0.357 -0.798,0.799 v 0 15.006 c 0,0.44 0.357,0.8 0.798,0.8 v 0 H 257.6 v 8.404 h -66.227 c -0.441,0 -0.798,0.358 -0.798,0.799 v 0 15.006 c 0,0.442 0.357,0.8 0.798,0.8 v 0 h 69.194 c -0.185,2.156 -1.113,4.16 -2.662,5.709 v 0 c -1.739,1.737 -4.049,2.694 -6.508,2.694 v 0 z"
                 style="fill:url(#linearGradient404);stroke:none"
                 id="path406"
                 inkscape:connector-curvature="0" /></g></g></g></g></g><g
       transform="translate(15)"
       id="g749"><g
         id="g543"
         transform="translate(-177.68801,49.702941)"><g
           style="filter:url(#filter711)"
           id="g408"
           transform="translate(-0.9334805,-2.1314384)"><g
             clip-path="url(#clipPath414)"
             id="g410"><g
               id="g416"><g
                 id="g418"><path
                   inkscape:connector-curvature="0"
                   id="path434"
                   style="fill:url(#linearGradient432);stroke:none"
                   d="m 351.383,47.408 h 12.408 v 62.544 h -12.408 z" /></g></g></g></g><g
           style="filter:url(#filter711)"
           id="g436"
           transform="translate(-0.9334805,-2.1314384)"><g
             clip-path="url(#clipPath442)"
             id="g438"><g
               id="g444"><g
                 id="g446"><path
                   inkscape:connector-curvature="0"
                   id="path464"
                   style="fill:url(#linearGradient462);stroke:none"
                   d="m 351.539,48.898 h 11.026 v 61.042 h -11.026 z" /></g></g></g></g><g
           style="filter:url(#filter711)"
           id="g466"
           transform="translate(-0.9334805,-2.1314384)"><g
             clip-path="url(#clipPath472)"
             id="g468"><g
               id="g474"><g
                 id="g476"><path
                   inkscape:connector-curvature="0"
                   id="path486"
                   style="fill:url(#linearGradient484);stroke:none"
                   d="m 352.387,49.72 h 9.103 v 59.122 h -9.103 z" /></g></g></g></g><g
           style="filter:url(#filter711)"
           id="g488"
           transform="translate(-0.9334805,-2.1314384)"><g
             clip-path="url(#clipPath494)"
             id="g490"><g
               id="g496"><g
                 id="g498"><path
                   inkscape:connector-curvature="0"
                   id="path516"
                   style="fill:url(#linearGradient514);stroke:none"
                   d="m 353.133,49.952 h 8.407 v 58.424 h -8.407 z" /></g></g></g></g></g></g><g
       style="filter:url(#filter711)"
       id="g518"
       transform="translate(-171.12149,47.571503)"><g
         clip-path="url(#clipPath524)"
         id="g520"><g
           id="g526"><g
             id="g528"><path
               inkscape:connector-curvature="0"
               id="path544"
               style="fill:url(#linearGradient542);stroke:none"
               d="m 335.809,109.952 c -1.887,0 -3.744,-0.326 -5.517,-0.969 v 0 c -1.778,-0.644 -3.411,-1.585 -4.86,-2.796 v 0 L 299.926,84.893 h -22.669 v 25.059 h -1.202 c -2.991,0 -5.805,-1.167 -7.922,-3.288 v 0 c -2.117,-2.121 -3.281,-4.94 -3.281,-7.937 v 0 -40.093 c 0,-2.999 1.164,-5.816 3.281,-7.938 v 0 c 2.117,-2.119 4.931,-3.288 7.922,-3.288 v 0 h 1.202 v 25.061 h 22.669 l 25.506,-21.298 c 1.449,-1.209 3.082,-2.149 4.86,-2.791 v 0 c 1.771,-0.646 3.629,-0.972 5.517,-0.972 v 0 h 13.575 l -37.321,31.272 37.321,31.272 z" /></g></g></g></g><g
       style="filter:url(#filter711)"
       id="g546"
       transform="translate(-171.12149,47.571503)"><g
         clip-path="url(#clipPath552)"
         id="g548"><g
           id="g554"><g
             id="g556"><path
               inkscape:connector-curvature="0"
               id="path574"
               style="fill:url(#linearGradient572);stroke:none"
               d="m 335.274,109.939 c -1.805,0 -3.582,-0.31 -5.281,-0.925 v 0 c -1.7,-0.614 -3.266,-1.514 -4.653,-2.67 v 0 L 299.647,84.93 h -23.613 v 25.009 h -0.51 c -2.809,0 -5.449,-1.092 -7.437,-3.078 v 0 c -1.985,-1.986 -3.077,-4.626 -3.077,-7.435 v 0 -40.015 c 0,-2.806 1.092,-5.447 3.078,-7.432 v 0 c 1.985,-1.988 4.627,-3.081 7.436,-3.081 v 0 h 0.51 v 25.008 h 23.613 L 325.34,52.493 c 1.391,-1.156 2.956,-2.054 4.653,-2.668 v 0 c 1.697,-0.615 3.476,-0.927 5.281,-0.927 v 0 h 11.68 l -36.498,30.521 36.498,30.52 z" /></g></g></g></g><g
       transform="translate(7.5)"
       id="g762"><g
         id="g555"
         transform="translate(-177.68801,49.702941)"><g
           style="filter:url(#filter711)"
           id="g576"
           transform="translate(-0.9334805,-2.1314384)"><g
             clip-path="url(#clipPath582)"
             id="g578"><g
               id="g584"><g
                 id="g586"><path
                   inkscape:connector-curvature="0"
                   id="path596"
                   style="fill:url(#linearGradient594);stroke:none"
                   d="m 335.159,108.842 c -1.695,0 -3.363,-0.292 -4.955,-0.868 v 0 c -1.596,-0.579 -3.063,-1.421 -4.364,-2.506 v 0 L 300.001,83.937 c -0.08,-0.067 -0.182,-0.105 -0.287,-0.105 v 0 h -24.31 c -0.247,0 -0.449,0.202 -0.449,0.451 v 0 24.549 c -2.382,-0.11 -4.607,-1.089 -6.306,-2.788 v 0 c -1.804,-1.806 -2.797,-4.205 -2.797,-6.756 v 0 -40.015 c 0,-2.55 0.993,-4.951 2.797,-6.755 v 0 c 1.699,-1.699 3.924,-2.677 6.306,-2.788 v 0 24.55 c 0,0.247 0.202,0.449 0.449,0.449 v 0 h 24.31 c 0.105,0 0.207,-0.038 0.287,-0.103 v 0 L 325.84,53.094 c 1.301,-1.084 2.768,-1.929 4.364,-2.505 v 0 c 1.592,-0.576 3.26,-0.869 4.955,-0.869 v 0 h 9.035 l -34.83,29.124 c -0.036,0.013 -0.071,0.029 -0.104,0.048 v 0 c -0.139,0.083 -0.222,0.26 -0.222,0.419 v 0 c 0,0.159 0.111,0.291 0.248,0.372 v 0 c 0.025,0.016 0.05,0.026 0.078,0.034 v 0 l 34.83,29.125 z" /></g></g></g></g><g
           style="filter:url(#filter711)"
           id="g598"
           transform="translate(-0.9334805,-2.1314384)"><g
             clip-path="url(#clipPath604)"
             id="g600"><g
               id="g606"><g
                 id="g608"><path
                   inkscape:connector-curvature="0"
                   id="path626"
                   style="fill:url(#linearGradient624);stroke:none"
                   d="m 335.557,108.375 c -1.654,0 -3.282,-0.285 -4.834,-0.848 v 0 c -1.556,-0.564 -2.988,-1.386 -4.26,-2.445 v 0 L 300.625,83.551 c -0.144,-0.119 -0.324,-0.186 -0.511,-0.186 v 0 h -24.307 c -0.443,0 -0.803,0.358 -0.803,0.8 v 0 24.176 c -2.154,-0.184 -4.158,-1.114 -5.707,-2.661 v 0 c -1.736,-1.74 -2.695,-4.051 -2.695,-6.509 v 0 -40.014 c 0,-2.459 0.959,-4.769 2.695,-6.509 v 0 c 1.549,-1.546 3.553,-2.477 5.707,-2.661 v 0 24.175 c 0,0.443 0.36,0.8 0.803,0.8 v 0 h 24.307 c 0.187,0 0.367,-0.066 0.511,-0.185 v 0 l 25.838,-21.533 c 1.272,-1.057 2.704,-1.879 4.26,-2.444 v 0 c 1.552,-0.563 3.18,-0.848 4.834,-0.848 v 0 h 8.072 L 309.58,78.424 c -0.032,0.015 -0.066,0.031 -0.097,0.051 v 0 c -0.247,0.145 -0.394,0.435 -0.394,0.719 v 0 c 0,0.283 0.177,0.531 0.419,0.674 v 0 c 0.025,0.015 0.049,0.028 0.075,0.039 v 0 l 34.046,28.468 z" /></g></g></g></g></g></g><g
       transform="translate(22.5)"
       id="g726"><g
         transform="translate(-178.62149,47.571503)"
         id="g628"
         style="filter:url(#filter711)"><g
           id="g630"
           clip-path="url(#clipPath634)"><g
             id="g636"><g
               id="g638"><path
                 d="m 377.629,109.952 c -2.99,0 -5.808,-1.167 -7.922,-3.288 v 0 c -2.116,-2.121 -3.283,-4.94 -3.283,-7.937 v 0 -40.093 c 0,-2.999 1.167,-5.816 3.283,-7.938 v 0 c 2.114,-2.119 4.932,-3.288 7.922,-3.288 v 0 h 1.202 v 25.061 h 58.822 c 2.992,0 5.805,1.165 7.922,3.288 v 0 c 2.115,2.12 3.281,4.938 3.281,7.934 v 0 15.036 c 0,2.997 -1.166,5.816 -3.281,7.937 v 0 c -2.117,2.121 -4.93,3.288 -7.922,3.288 v 0 z m 1.202,-12.425 h 57.621 V 84.893 h -57.621 z"
                 style="fill:url(#linearGradient652);stroke:none"
                 id="path654"
                 inkscape:connector-curvature="0" /></g></g></g></g><g
         id="g521"
         transform="translate(-177.68801,49.702941)"><g
           style="filter:url(#filter711)"
           id="g656"
           transform="translate(-0.9334805,-2.1314384)"><g
             clip-path="url(#clipPath662)"
             id="g658"><g
               id="g664"><g
                 id="g666"><path
                   inkscape:connector-curvature="0"
                   id="path684"
                   style="fill:url(#linearGradient682);stroke:none"
                   d="m 377.095,109.939 c -2.807,0 -5.448,-1.092 -7.434,-3.078 v 0 c -1.987,-1.986 -3.08,-4.626 -3.08,-7.435 v 0 -40.015 c 0,-2.806 1.093,-5.447 3.08,-7.432 v 0 c 1.984,-1.988 4.627,-3.081 7.434,-3.081 v 0 h 0.511 v 25.008 h 59.511 c 2.811,0 5.448,1.094 7.438,3.081 v 0 c 1.983,1.985 3.076,4.628 3.076,7.434 v 0 15.005 c 0,2.809 -1.093,5.449 -3.076,7.436 v 0 c -1.99,1.985 -4.631,3.077 -7.438,3.077 v 0 z m 0.511,-11.023 h 59.002 V 84.93 h -59.002 z" /></g></g></g></g><g
           style="filter:url(#filter711)"
           id="g686"
           transform="translate(-0.9334805,-2.1314384)"><g
             clip-path="url(#clipPath692)"
             id="g688"><g
               id="g694"><g
                 id="g696"><path
                   inkscape:connector-curvature="0"
                   id="path706"
                   style="fill:url(#linearGradient704);stroke:none"
                   d="m 376.979,108.842 c -2.551,0 -4.951,-0.994 -6.756,-2.798 v 0 c -1.803,-1.806 -2.797,-4.205 -2.797,-6.756 v 0 -40.015 c 0,-2.55 0.994,-4.951 2.797,-6.755 v 0 c 1.698,-1.699 3.924,-2.677 6.305,-2.788 v 0 24.55 c 0,0.247 0.203,0.449 0.451,0.449 v 0 h 60.023 c 2.551,0 4.949,0.994 6.756,2.797 v 0 c 1.803,1.806 2.799,4.207 2.799,6.757 v 0 15.005 c 0,2.551 -0.996,4.95 -2.799,6.756 v 0 c -1.807,1.804 -4.205,2.798 -6.756,2.798 v 0 z m -0.451,-24.559 v 15.005 c 0,0.248 0.203,0.45 0.451,0.45 v 0 h 60.023 c 0.249,0 0.449,-0.202 0.449,-0.45 v 0 -15.005 c 0,-0.249 -0.2,-0.451 -0.449,-0.451 v 0 h -60.023 c -0.248,0 -0.451,0.202 -0.451,0.451" /></g></g></g></g><g
           style="filter:url(#filter711)"
           id="g708"
           transform="translate(-0.9334805,-2.1314384)"><g
             clip-path="url(#clipPath714)"
             id="g710"><g
               id="g716"><g
                 id="g718"><path
                   inkscape:connector-curvature="0"
                   id="path736"
                   style="fill:url(#linearGradient734);stroke:none"
                   d="m 377.377,108.375 c -2.459,0 -4.769,-0.958 -6.503,-2.695 v 0 c -1.743,-1.74 -2.698,-4.051 -2.698,-6.509 v 0 -40.014 c 0,-2.459 0.955,-4.769 2.693,-6.509 v 0 c 1.551,-1.546 3.553,-2.477 5.71,-2.661 v 0 24.175 c 0,0.443 0.357,0.8 0.798,0.8 v 0 h 60.024 c 2.459,0 4.769,0.957 6.508,2.695 v 0 c 1.738,1.738 2.697,4.051 2.697,6.508 v 0 15.006 c 0,2.458 -0.959,4.769 -2.697,6.509 v 0 c -1.739,1.737 -4.049,2.695 -6.508,2.695 v 0 z m -0.798,-24.21 v 15.006 c 0,0.441 0.357,0.801 0.798,0.801 v 0 h 60.024 c 0.444,0 0.799,-0.36 0.799,-0.801 v 0 -15.006 c 0,-0.442 -0.355,-0.8 -0.799,-0.8 v 0 h -60.024 c -0.441,0 -0.798,0.358 -0.798,0.8" /></g></g></g></g></g></g><g
       transform="translate(-140.18801,49.702941)"
       id="g487"><g
         transform="translate(-0.9334805,-2.1314384)"
         id="g738"
         style="filter:url(#filter711)"><g
           id="g740"
           clip-path="url(#clipPath744)"><g
             id="g746"><g
               id="g748"><path
                 d="m 546.491,109.952 c -2.995,0 -5.807,-1.167 -7.927,-3.288 v 0 c -2.113,-2.121 -3.278,-4.94 -3.278,-7.937 v 0 -40.093 c 0,-2.999 1.165,-5.816 3.278,-7.938 v 0 c 2.12,-2.119 4.932,-3.288 7.927,-3.288 v 0 h 1.201 v 25.061 h 30.377 l 25.502,-21.298 c 1.449,-1.209 3.086,-2.149 4.86,-2.791 v 0 c 1.771,-0.646 3.626,-0.972 5.517,-0.972 v 0 h 12.875 l -29.909,25.061 h 9.6 c 2.99,0 5.805,1.165 7.922,3.288 v 0 c 2.115,2.12 3.282,4.938 3.282,7.934 v 0 15.036 c 0,2.997 -1.167,5.816 -3.282,7.937 v 0 c -2.117,2.121 -4.932,3.288 -7.922,3.288 v 0 z m 1.201,-12.425 h 57.621 V 84.893 h -57.621 z"
                 style="fill:url(#linearGradient762);stroke:none"
                 id="path764"
                 inkscape:connector-curvature="0" /></g></g></g></g><g
         transform="translate(-0.9334805,-2.1314384)"
         id="g766"
         style="filter:url(#filter711)"><g
           id="g768"
           clip-path="url(#clipPath772)"><g
             id="g774"><g
               id="g776"><path
                 d="m 545.96,109.939 c -2.809,0 -5.448,-1.092 -7.438,-3.078 v 0 c -1.986,-1.986 -3.076,-4.626 -3.076,-7.435 v 0 -40.015 c 0,-2.806 1.09,-5.447 3.08,-7.432 v 0 c 1.982,-1.988 4.625,-3.081 7.434,-3.081 v 0 h 0.509 v 25.008 h 31.317 l 25.697,-21.413 c 1.386,-1.156 2.949,-2.054 4.651,-2.668 v 0 c 1.697,-0.615 3.474,-0.927 5.279,-0.927 v 0 h 10.978 l -29.908,25.008 h 11.498 c 2.809,0 5.447,1.094 7.434,3.081 v 0 c 1.984,1.985 3.08,4.628 3.08,7.434 v 0 15.005 c 0,2.809 -1.096,5.449 -3.08,7.436 v 0 c -1.987,1.985 -4.625,3.077 -7.434,3.077 v 0 z m 0.509,-11.023 h 59.002 V 84.93 h -59.002 z"
                 style="fill:url(#linearGradient792);stroke:none"
                 id="path794"
                 inkscape:connector-curvature="0" /></g></g></g></g><g
         transform="translate(-0.9334805,-2.1314384)"
         id="g796"
         style="filter:url(#filter711)"><g
           id="g798"
           clip-path="url(#clipPath802)"><g
             id="g804"><g
               id="g806"><path
                 d="m 545.84,108.842 c -2.551,0 -4.951,-0.994 -6.755,-2.798 v 0 c -1.803,-1.806 -2.798,-4.205 -2.798,-6.756 v 0 -40.015 c 0,-2.55 0.995,-4.951 2.798,-6.755 v 0 c 1.699,-1.699 3.924,-2.677 6.304,-2.788 v 0 24.55 c 0,0.247 0.204,0.449 0.451,0.449 v 0 h 32.014 c 0.103,0 0.207,-0.038 0.285,-0.103 v 0 l 25.84,-21.532 c 1.301,-1.084 2.769,-1.929 4.362,-2.505 v 0 c 1.595,-0.576 3.261,-0.869 4.956,-0.869 v 0 h 8.332 l -28.957,24.213 c -0.144,0.122 -0.197,0.321 -0.135,0.499 v 0 c 0.065,0.178 0.235,0.297 0.426,0.297 v 0 h 12.901 c 2.55,0 4.949,0.994 6.752,2.797 v 0 c 1.806,1.806 2.8,4.207 2.8,6.757 v 0 15.005 c 0,2.551 -0.994,4.95 -2.8,6.756 v 0 c -1.803,1.804 -4.202,2.798 -6.752,2.798 v 0 z m -0.451,-24.559 v 15.005 c 0,0.248 0.204,0.45 0.451,0.45 v 0 h 60.024 c 0.248,0 0.449,-0.202 0.449,-0.45 v 0 -15.005 c 0,-0.249 -0.201,-0.451 -0.449,-0.451 v 0 H 545.84 c -0.247,0 -0.451,0.202 -0.451,0.451"
                 style="fill:url(#linearGradient814);stroke:none"
                 id="path816"
                 inkscape:connector-curvature="0" /></g></g></g></g><g
         transform="translate(-0.9334805,-2.1314384)"
         id="g818"
         style="filter:url(#filter711)"><g
           id="g820"
           clip-path="url(#clipPath824)"><g
             id="g826"><g
               id="g828"><path
                 d="m 546.242,108.375 c -2.458,0 -4.769,-0.958 -6.508,-2.695 v 0 c -1.741,-1.74 -2.697,-4.051 -2.697,-6.509 v 0 -40.014 c 0,-2.459 0.956,-4.769 2.697,-6.509 v 0 c 1.549,-1.546 3.554,-2.477 5.706,-2.661 v 0 24.175 c 0,0.443 0.36,0.8 0.802,0.8 v 0 h 32.011 c 0.189,0 0.367,-0.066 0.513,-0.185 v 0 l 25.836,-21.533 c 1.272,-1.057 2.705,-1.879 4.26,-2.444 v 0 c 1.555,-0.563 3.181,-0.848 4.834,-0.848 v 0 h 7.369 L 592.85,73.549 c -0.259,0.215 -0.353,0.571 -0.241,0.886 v 0 c 0.116,0.315 0.417,0.527 0.755,0.527 v 0 h 12.902 c 2.455,0 4.766,0.957 6.508,2.695 v 0 c 1.734,1.738 2.694,4.051 2.694,6.508 v 0 15.006 c 0,2.458 -0.96,4.769 -2.694,6.509 v 0 c -1.742,1.737 -4.053,2.695 -6.508,2.695 v 0 z m -0.802,-24.21 v 15.006 c 0,0.441 0.36,0.801 0.802,0.801 v 0 h 60.024 c 0.439,0 0.799,-0.36 0.799,-0.801 v 0 -15.006 c 0,-0.442 -0.36,-0.8 -0.799,-0.8 v 0 h -60.024 c -0.442,0 -0.802,0.358 -0.802,0.8"
                 style="fill:url(#linearGradient844);stroke:none"
                 id="path846"
                 inkscape:connector-curvature="0" /></g></g></g></g></g></g></svg>
