<?xml version="1.0" encoding="UTF-8" standalone="no"?>
<!-- Svg Vector Icons : http://www.onlinewebfonts.com/icon -->

<svg
   version="1.1"
   x="0px"
   y="0px"
   viewBox="0 0 1000 1000"
   enable-background="new 0 0 1000 1000"
   xml:space="preserve"
   id="svg39"
   sodipodi:docname="whats_green.svg"
   inkscape:version="1.1.1 (3bf5ae0d25, 2021-09-20)"
   xmlns:inkscape="http://www.inkscape.org/namespaces/inkscape"
   xmlns:sodipodi="http://sodipodi.sourceforge.net/DTD/sodipodi-0.dtd"
   xmlns="http://www.w3.org/2000/svg"
   xmlns:svg="http://www.w3.org/2000/svg"
   xmlns:rdf="http://www.w3.org/1999/02/22-rdf-syntax-ns#"
   xmlns:cc="http://creativecommons.org/ns#"
   xmlns:dc="http://purl.org/dc/elements/1.1/"><defs
   id="defs43"><filter
     style="color-interpolation-filters:sRGB;"
     inkscape:label="Drop Shadow"
     id="filter1556"
     x="-0.088163265"
     y="-0.088163265"
     width="1.1885714"
     height="1.1885714"><feFlood
       flood-opacity="1"
       flood-color="rgb(0,0,0)"
       result="flood"
       id="feFlood1546" /><feComposite
       in="flood"
       in2="SourceGraphic"
       operator="in"
       result="composite1"
       id="feComposite1548" /><feGaussianBlur
       in="composite1"
       stdDeviation="36"
       result="blur"
       id="feGaussianBlur1550" /><feOffset
       dx="12"
       dy="12"
       result="offset"
       id="feOffset1552" /><feComposite
       in="SourceGraphic"
       in2="offset"
       operator="over"
       result="composite2"
       id="feComposite1554" /></filter></defs><sodipodi:namedview
   pagecolor="#ffffff"
   bordercolor="#666666"
   borderopacity="1"
   objecttolerance="10"
   gridtolerance="10"
   guidetolerance="10"
   inkscape:pageopacity="0"
   inkscape:pageshadow="2"
   inkscape:window-width="1920"
   inkscape:window-height="991"
   id="namedview41"
   showgrid="false"
   inkscape:pagecheckerboard="true"
   inkscape:zoom="0.472"
   inkscape:cx="484.11017"
   inkscape:cy="306.14407"
   inkscape:window-x="1911"
   inkscape:window-y="-9"
   inkscape:window-maximized="1"
   inkscape:current-layer="g37" />
<metadata
   id="metadata2"> Svg Vector Icons : http://www.onlinewebfonts.com/icon <rdf:RDF><cc:Work
     rdf:about=""><dc:format>image/svg+xml</dc:format><dc:type
       rdf:resource="http://purl.org/dc/dcmitype/StillImage" /></cc:Work></rdf:RDF></metadata>
<g
   id="g37"
   style="fill:#f2f2f2;fill-opacity:1"><g
     id="g7"
     style="fill:#f2f2f2;fill-opacity:1" /><g
     id="g9"
     style="fill:#f2f2f2;fill-opacity:1" /><g
     id="g11"
     style="fill:#f2f2f2;fill-opacity:1" /><g
     id="g13"
     style="fill:#f2f2f2;fill-opacity:1" /><g
     id="g15"
     style="fill:#f2f2f2;fill-opacity:1" /><g
     id="g17"
     style="fill:#f2f2f2;fill-opacity:1" /><g
     id="g19"
     style="fill:#f2f2f2;fill-opacity:1" /><g
     id="g21"
     style="fill:#f2f2f2;fill-opacity:1" /><g
     id="g23"
     style="fill:#f2f2f2;fill-opacity:1" /><g
     id="g25"
     style="fill:#f2f2f2;fill-opacity:1" /><g
     id="g27"
     style="fill:#f2f2f2;fill-opacity:1" /><g
     id="g29"
     style="fill:#f2f2f2;fill-opacity:1" /><g
     id="g31"
     style="fill:#f2f2f2;fill-opacity:1" /><g
     id="g33"
     style="fill:#f2f2f2;fill-opacity:1" /><g
     id="g35"
     style="fill:#f2f2f2;fill-opacity:1" /><g
     id="g1094"
     transform="matrix(0.86201419,0,0,0.82243888,69.379798,89.067649)"
     style="stroke-width:1.18766;filter:url(#filter1556)"><g
       id="g5"
       style="fill:#f2f2f2;fill-opacity:1;stroke-width:1.18766"><path
         id="WhatsApp"
         d="m 990,487.4 c 0,263.7 -215.4,477.4 -481.1,477.4 -84.4,0 -163.6,-21.6 -232.6,-59.4 L 10,990 96.8,733.9 C 53,662 27.8,577.6 27.8,487.4 27.8,223.7 243.2,10 508.9,10 774.6,10 990,223.7 990,487.4 Z M 508.9,86 c -223,0 -404.5,180 -404.5,401.4 0,87.8 28.6,169.2 77.1,235.3 L 131,871.8 286.4,822.4 c 63.9,41.9 140.4,66.4 222.5,66.4 223,0 404.5,-180 404.5,-401.3 C 913.4,266.1 731.9,86 508.9,86 Z m 242.9,511.3 c -3,-4.9 -10.8,-7.8 -22.6,-13.7 -11.8,-5.8 -69.8,-34.2 -80.6,-38 -10.8,-3.9 -18.7,-5.9 -26.5,5.8 -7.8,11.7 -30.5,38 -37.3,45.9 -6.9,7.8 -13.8,8.8 -25.6,3 -11.8,-5.8 -49.8,-18.2 -94.8,-58.1 -35,-31 -58.7,-69.3 -65.6,-81 -6.9,-11.7 -0.7,-18 5.2,-23.9 5.3,-5.2 11.8,-13.7 17.7,-20.5 5.9,-6.8 7.9,-11.7 11.8,-19.5 4,-7.8 2,-14.6 -1,-20.5 -2.9,-5.8 -26.5,-63.4 -36.4,-86.9 -9.8,-23.4 -19.6,-19.5 -26.5,-19.5 -6.9,0 -14.7,-1 -22.6,-1 -7.9,0 -20.6,2.9 -31.5,14.6 -10.8,11.7 -41.3,40 -41.3,97.6 0,57.6 42.2,113.2 48.1,121 5.9,7.8 81.6,129.8 201.4,176.6 119.9,46.8 119.9,31.2 141.5,29.3 21.6,-2 69.8,-28.3 79.6,-55.6 10,-27.3 10,-50.7 7,-55.6 z"
         style="fill:#f2f2f2;fill-opacity:1;stroke-width:1.18766" /></g><path
       style="fill:#28a745;stroke:#ffffff;stroke-width:3.14216;stroke-linecap:square;stroke-linejoin:round"
       d="m 501.94072,85.664394 c -130.5815,0.180631 -258.07309,69.535416 -329.91675,178.417136 -50.31692,75.00093 -75.463161,167.15139 -66.51384,257.32836 4.49442,72.72767 33.36465,142.33416 74.5622,201.82568 -15.94729,48.58765 -33.98703,96.63441 -48.0626,145.75608 6.03137,4.71235 15.1462,-3.50002 22.15719,-3.7164 44.23904,-13.37377 88.18207,-27.705 132.25555,-41.61512 66.47986,43.54832 146.38524,66.12004 225.68524,66.54279 94.71701,-2.00767 189.19593,-35.36904 260.86221,-97.9997 C 851.01167,726.35932 902.12576,630.01879 912.20869,528.34928 925.965,404.85983 876.90184,276.84218 784.97547,193.39029 708.99697,122.87741 605.92968,82.111206 501.94072,85.664394 Z M 349.77489,271.48851 c 14.16598,1.31751 35.04748,-4.09939 41.68598,12.81945 15.91968,34.34202 30.76248,69.5249 42.96049,105.21634 -6.16536,24.90437 -30.7114,40.11733 -40.22115,63.13725 10.80462,24.81076 28.8203,46.26093 46.27913,66.80762 34.83284,38.72803 79.65875,68.23403 128.91867,85.00647 14.27481,0.5832 22.25178,-15.31032 31.27724,-23.99814 11.61797,-11.33108 18.38202,-28.91854 33.27933,-36.3915 17.49779,1.01004 32.6715,12.53646 48.85654,18.52995 22.53949,11.78528 47.7296,20.10017 67.83441,35.84308 4.24943,18.25529 -1.95447,37.69682 -7.63458,55.20887 -13.5219,24.46519 -39.28521,40.15316 -64.81311,49.89572 -35.81792,14.04077 -74.18078,3.85634 -108.8943,-8.97351 C 512.97445,676.63078 459.42956,649.29384 415.77742,608.95318 368.02771,565.36123 327.21011,513.68538 296.0143,456.9485 c -20.68635,-38.89687 -27.86804,-87.55956 -9.74907,-128.92695 10.57415,-20.94547 24.73004,-42.36695 45.55085,-54.14956 5.80547,-2.20818 11.85786,-2.27699 17.95881,-2.38348 z"
       id="path949" /></g></g>
</svg>
